<svg xmlns="http://www.w3.org/2000/svg" viewBox="0 0 512 512" width="512" height="512">
  <defs>
    <linearGradient id="grad" x1="0%" y1="0%" x2="100%" y2="100%">
      <stop offset="0%" style="stop-color:#a855f7;stop-opacity:1" />
      <stop offset="100%" style="stop-color:#6366f1;stop-opacity:1" />
    </linearGradient>
  </defs>
  <!-- Background Rounded Rect -->
  <rect width="100%" height="100%" rx="120" fill="url(#grad)" />
  
  <!-- Subtle inner card sheen shadow -->
  <rect x="12" y="12" width="488" height="488" rx="108" fill="none" stroke="#ffffff" stroke-width="6" stroke-opacity="0.12" />
  
  <!-- Clean minimalistic QR icon in the center -->
  <g fill="#ffffff" transform="translate(106, 106)">
    <!-- Top-left finder pattern -->
    <path d="M0 0h90v90H0V0zm20 20v50h50V20H20z" />
    <rect x="32" y="32" width="26" height="26" rx="4" />
    
    <!-- Top-right finder pattern -->
    <path d="M210 0h90v90h-90V0zm20 20v50h50V20h-50z" />
    <rect x="242" y="32" width="26" height="26" rx="4" />
    
    <!-- Bottom-left finder pattern -->
    <path d="M0 210h90v90H0v-90zm20 20v50h50v-50H20z" />
    <rect x="32" y="242" width="26" height="26" rx="4" />
    
    <!-- QR Data Grid Details -->
    <rect x="115" y="20" width="20" height="20" rx="3" />
    <rect x="145" y="45" width="20" height="20" rx="3" />
    <rect x="115" y="90" width="20" height="20" rx="3" />
    <rect x="175" y="115" width="20" height="20" rx="3" />
    <rect x="115" y="145" width="20" height="20" rx="3" />
    <rect x="145" y="170" width="20" height="20" rx="3" />
    <rect x="200" y="115" width="45" height="20" rx="3" />
    <rect x="235" y="145" width="20" height="45" rx="3" />
    <rect x="115" y="195" width="20" height="20" rx="3" />
    
    <rect x="200" y="195" width="20" height="45" rx="3" />
    <rect x="235" y="235" width="45" height="20" rx="3" />
    <rect x="145" y="235" width="20" height="20" rx="3" />
  </g>
</svg>
